HIERARCHY
ROOT SpineBase
{
  OFFSET 0.000000 0.000000 0.000000
  CHANNELS 6 Xposition Yposition Zposition Zrotation Xrotation Yrotation
  JOINT SpineMid
  {
    OFFSET 0.000000 31.097727 0.000000
    CHANNELS 3 Zrotation Xrotation Yrotation
    JOINT SpineShoulder
    {
      OFFSET 0.190485 23.198450 -0.991522
      CHANNELS 3 Zrotation Xrotation Yrotation
      JOINT Neck
      {
        OFFSET 0.083167 7.700500 -0.670676
        CHANNELS 3 Zrotation Xrotation Yrotation
        JOINT Head
        {
          OFFSET -2.338198 9.247151 3.857847
          CHANNELS 3 Zrotation Xrotation Yrotation
          End Site
          {
            OFFSET 0 0 0
          }
        }
      }
      JOINT ShoulderLeft
      {
        OFFSET -10.530897 -7.341444 6.371453
        CHANNELS 3 Zrotation Xrotation Yrotation
        JOINT ElbowLeft
        {
          OFFSET -2.756110 -23.159996 -5.957366
          CHANNELS 3 Zrotation Xrotation Yrotation
          JOINT WristLeft
          {
            OFFSET 4.094990 10.168215 -19.072074
            CHANNELS 3 Zrotation Xrotation Yrotation
            JOINT HandLeft
            {
              OFFSET 2.181850 5.052886 -1.813423
              CHANNELS 3 Zrotation Xrotation Yrotation
              JOINT HandTipLeft
              {
                OFFSET -0.471251 1.254202 -1.679462
                CHANNELS 3 Zrotation Xrotation Yrotation
                End Site
                {
                  OFFSET 0 0 0
                }
              }
              JOINT ThumbLeft
              {
                OFFSET 0.356461 0.062105 -1.989711
                CHANNELS 3 Zrotation Xrotation Yrotation
                End Site
                {
                  OFFSET 0 0 0
                }
              }
            }
          }
        }
      }
      JOINT ShoulderRight
      {
        OFFSET 6.989678 -3.750126 -12.654046
        CHANNELS 3 Zrotation Xrotation Yrotation
        JOINT ElbowRight
        {
          OFFSET 1.072218 -26.050277 -5.795784
          CHANNELS 3 Zrotation Xrotation Yrotation
          JOINT WristRight
          {
            OFFSET -5.858755 -20.950480 -3.320871
            CHANNELS 3 Zrotation Xrotation Yrotation
            JOINT HandRight
            {
              OFFSET -0.615145 -6.316563 0.845762
              CHANNELS 3 Zrotation Xrotation Yrotation
              JOINT HandTipRight
              {
                OFFSET -2.854592 -5.760398 -0.719822
                CHANNELS 3 Zrotation Xrotation Yrotation
                End Site
                {
                  OFFSET 0 0 0
                }
              }
              JOINT ThumbRight
              {
                OFFSET 6.325800 -4.058503 1.218782
                CHANNELS 3 Zrotation Xrotation Yrotation
                End Site
                {
                  OFFSET 0 0 0
                }
              }
            }
          }
        }
      }
    }
  }
  JOINT HipLeft
  {
    OFFSET -3.630954 -0.000191 1.208580
    CHANNELS 3 Zrotation Xrotation Yrotation
    JOINT KneeLeft
    {
      OFFSET -2.472036 -35.297734 3.142128
      CHANNELS 3 Zrotation Xrotation Yrotation
      JOINT AnkleLeft
      {
        OFFSET 7.865640 -30.239291 -0.770011
        CHANNELS 3 Zrotation Xrotation Yrotation
        JOINT FootLeft
        {
          OFFSET 8.526544 -3.410553 -7.789448
          CHANNELS 3 Zrotation Xrotation Yrotation
          End Site
          {
            OFFSET 0 0 0
          }
        }
      }
    }
  }
  JOINT HipRight
  {
    OFFSET 4.198330 2.078941 -7.857865
    CHANNELS 3 Zrotation Xrotation Yrotation
    JOINT KneeRight
    {
      OFFSET 3.532301 -34.775961 -2.025702
      CHANNELS 3 Zrotation Xrotation Yrotation
      JOINT AnkleRight
      {
        OFFSET 0.987881 -30.065372 8.247012
        CHANNELS 3 Zrotation Xrotation Yrotation
        JOINT FootRight
        {
          OFFSET -1.324971 -5.612653 -6.217526
          CHANNELS 3 Zrotation Xrotation Yrotation
          End Site
          {
            OFFSET 0 0 0
          }
        }
      }
    }
  }
}
MOTION
Frames: 13
Frame Time: 0.033333
-30.058714 71.482400 328.274588 4.200495 -3.976703 50.905187 0.535990 0.265677 -50.573719 -0.227439 0.251669 0.175454 -1.894120 -4.037265 -3.071319 0.000000 0.000000 0.000000 -0.581756 1.568319 -1.141616 -3.527260 1.535376 0.766681 -6.184845 36.400286 -18.025524 -18.362535 -43.390364 -43.572745 0.000000 0.000000 0.000000 0.000000 0.000000 0.000000 -2.167555 1.347943 -0.856816 -2.662405 -2.456932 1.843833 -6.783831 -3.437156 -1.528184 5.014716 15.436919 -3.181713 0.000000 0.000000 0.000000 0.000000 0.000000 0.000000 6.135378 24.812257 -54.493566 -0.590299 -17.577816 0.086790 -16.439606 -33.698066 72.757310 0.000000 0.000000 0.000000 3.878983 -0.569505 -51.482682 -3.001323 3.731638 1.660709 -27.283086 14.255260 19.322074 0.000000 0.000000 0.000000
-31.919347 70.899457 327.346475 5.636751 -4.102276 48.671832 0.493010 0.440758 -48.235328 -0.250236 0.291691 0.226774 -4.587216 -6.001821 -3.092997 0.000000 0.000000 0.000000 -2.236293 1.646064 -1.109523 -2.941207 2.533256 0.637379 -8.165479 32.664096 -16.777271 -20.716789 -42.865949 -49.140549 0.000000 0.000000 0.000000 0.000000 0.000000 0.000000 -2.539637 0.884274 -1.178091 -4.116689 -2.836965 2.413184 -5.984568 -3.426448 -1.719334 4.854505 16.542058 -3.449036 0.000000 0.000000 0.000000 0.000000 0.000000 0.000000 4.712557 27.377011 -52.365551 -5.167349 -16.698003 -0.463980 -12.625047 -35.384644 69.236675 0.000000 0.000000 0.000000 3.789671 -1.446070 -49.402255 -5.015934 4.661045 1.938043 -26.638654 15.403724 18.281857 0.000000 0.000000 0.000000
-34.248447 70.399789 326.225025 6.886929 -4.019580 48.208174 0.475611 0.526031 -47.689924 -0.232649 0.276483 0.277577 -7.668726 -8.477020 -3.105862 0.000000 0.000000 0.000000 -3.296996 1.598274 -1.226562 -3.274785 1.443677 0.707343 -10.972569 26.894454 -13.694017 -15.311868 -36.767811 -41.441960 0.000000 0.000000 0.000000 0.000000 0.000000 0.000000 -2.464113 0.235871 -1.580618 -5.924253 -2.902492 3.011274 -5.793883 -4.500073 -1.910670 5.868334 18.603377 -4.086943 0.000000 0.000000 0.000000 0.000000 0.000000 0.000000 4.332982 29.172373 -52.205791 -8.173509 -16.719510 -1.007114 -9.793868 -37.381901 72.168661 0.000000 0.000000 0.000000 4.165632 -3.109873 -49.090862 -7.553319 5.022825 2.300130 -25.082173 14.268094 16.801264 0.000000 0.000000 0.000000
-36.471362 70.145371 325.084615 8.010647 -3.858828 48.354187 0.437169 0.436148 -47.759911 -0.192376 0.190614 0.335176 -9.368973 -9.878448 -3.419117 0.000000 0.000000 0.000000 -3.845120 1.453088 -1.469200 -3.935342 1.599574 0.870562 -14.183658 14.743361 -9.581254 -9.944021 -24.330092 -33.633088 0.000000 0.000000 0.000000 0.000000 0.000000 0.000000 -2.238961 0.021191 -2.013612 -7.141502 -3.186850 3.482729 -5.248817 -3.549610 -1.884407 5.050583 18.706973 -4.298050 0.000000 0.000000 0.000000 0.000000 0.000000 0.000000 4.077425 29.861846 -52.518085 -11.527102 -16.458470 -1.749788 -7.704440 -35.485440 62.023873 0.000000 0.000000 0.000000 3.908031 -4.871343 -49.354774 -8.822419 5.745528 2.858357 -25.295332 15.228386 15.846228 0.000000 0.000000 0.000000
-38.938787 70.254801 323.904542 9.070346 -3.903318 46.503322 0.373090 0.540885 -45.832772 -0.168233 0.165669 0.379874 -11.532131 -9.907334 -3.066090 0.000000 0.000000 0.000000 -3.716351 1.120628 -1.801689 -5.708562 -0.843986 0.963918 -15.544005 -3.545131 -2.860881 -1.327481 4.659646 -20.840050 0.000000 0.000000 0.000000 0.000000 0.000000 0.000000 -2.504552 0.240341 -2.255365 -7.498689 -3.749940 3.688377 -4.655831 -2.875596 -1.800003 5.208024 18.905605 -4.952588 0.000000 0.000000 0.000000 0.000000 0.000000 0.000000 2.925401 29.393388 -50.320262 -13.492269 -16.122564 -2.228638 -2.291798 -23.504867 65.038947 0.000000 0.000000 0.000000 2.847113 -4.093628 -47.484212 -4.865597 5.259469 3.605272 -27.901221 17.291418 14.378240 0.000000 0.000000 0.000000
-41.948268 70.131514 322.648960 9.594208 -3.687041 45.627345 0.322192 0.225973 -44.912637 -0.267924 0.112829 0.410455 -15.062809 -9.722676 -1.968699 0.000000 0.000000 0.000000 -2.971838 0.658306 -2.157830 -7.633625 -2.887943 1.185320 -10.502520 -20.544962 4.992575 10.406157 33.022117 -12.205333 0.000000 0.000000 0.000000 0.000000 0.000000 0.000000 -1.952251 0.256247 -2.593914 -8.350523 -3.621642 3.905294 -5.018786 -2.493160 -1.739972 5.998253 18.502928 -5.202045 0.000000 0.000000 0.000000 0.000000 0.000000 0.000000 3.303409 27.922882 -49.437113 -14.593399 -16.135478 -2.539848 2.159652 -5.724348 67.641081 0.000000 0.000000 0.000000 1.979916 -3.762315 -46.572104 0.521664 4.694355 4.587720 -32.868961 21.537482 13.554887 0.000000 0.000000 0.000000
-45.060656 70.536122 321.143701 9.696533 -3.708190 42.173115 0.426901 0.095253 -41.443844 -0.273970 0.117721 0.422570 -17.209274 -8.386799 -0.813894 0.000000 0.000000 0.000000 -1.825196 0.074658 -2.490935 -9.638315 -5.038963 1.411343 -1.568200 -32.175655 14.114089 24.107855 56.383088 -20.202050 0.000000 0.000000 0.000000 0.000000 0.000000 0.000000 -1.074499 0.029344 -2.902714 -10.152803 -2.677672 4.100323 -3.227796 -4.935850 -1.494528 4.152276 20.136887 -5.250681 0.000000 0.000000 0.000000 0.000000 0.000000 0.000000 2.202537 25.284428 -45.262734 -15.356742 -15.197871 -2.570892 0.224319 -6.374730 66.639287 0.000000 0.000000 0.000000 1.822607 -2.576032 -43.045778 6.861534 2.905065 5.774100 -36.865172 24.384672 11.919154 0.000000 0.000000 0.000000
-47.675211 70.370536 319.382778 9.233974 -3.766983 36.573486 0.762665 0.146702 -35.889543 -0.267170 0.138037 0.412132 -17.165682 -5.168095 0.375413 0.000000 0.000000 0.000000 0.258381 -0.886828 -2.874159 -12.269588 -8.043982 1.718871 4.479405 -36.335129 19.990610 43.018974 64.671732 -35.630606 0.000000 0.000000 0.000000 0.000000 0.000000 0.000000 -0.335356 -0.329979 -3.012746 -11.794958 -1.797026 4.217725 -0.202118 -8.393088 -1.058181 -1.389440 25.661782 -5.352833 0.000000 0.000000 0.000000 0.000000 0.000000 0.000000 -0.098861 21.320782 -38.479232 -14.863861 -13.173259 -2.152704 -1.295156 -2.136187 66.076084 0.000000 0.000000 0.000000 1.811838 -1.633092 -37.386412 12.559590 2.101457 6.803965 -39.195125 23.759733 9.553974 0.000000 0.000000 0.000000
-49.471911 70.566431 317.266514 9.166084 -3.851468 24.994638 0.734593 0.470005 -24.325530 -0.331549 0.154287 0.401077 -13.805679 1.496262 1.091370 0.000000 0.000000 0.000000 3.970601 -1.702300 -3.705764 -14.832792 -9.950950 4.613286 5.151752 -36.391519 20.088169 49.205866 66.440108 -42.563823 0.000000 0.000000 0.000000 0.000000 0.000000 0.000000 0.710850 -3.309373 -3.095246 -14.365559 1.917963 5.007410 1.443855 -11.651662 -0.875956 -9.424644 25.840382 -0.907780 0.000000 0.000000 0.000000 0.000000 0.000000 0.000000 -5.559644 15.335295 -25.236354 -15.204977 -8.155031 -1.211049 3.949916 21.492371 67.536072 0.000000 0.000000 0.000000 -0.051803 1.035822 -25.543831 19.763159 0.268012 7.978882 -36.640820 15.733661 3.147678 0.000000 0.000000 0.000000
-50.894031 69.539491 315.602145 8.941103 -4.561715 17.409660 0.689573 0.613223 -16.703477 -0.317272 0.136131 0.397226 -10.028711 8.597914 1.193704 0.000000 0.000000 0.000000 3.634696 -1.534024 -3.528122 -14.560867 -9.156039 4.073349 12.326016 -39.765625 25.994539 48.100275 68.288960 -51.651336 0.000000 0.000000 0.000000 0.000000 0.000000 0.000000 -0.010717 -3.181403 -2.917925 -12.307766 3.179857 4.460288 0.379295 -11.177092 -0.567490 -13.495872 22.392332 1.599780 0.000000 0.000000 0.000000 0.000000 0.000000 0.000000 -7.559301 11.136088 -16.966517 -14.994781 -4.602369 -0.539640 6.406210 28.991647 64.409787 0.000000 0.000000 0.000000 -1.052329 3.129562 -17.753815 24.379590 -1.220215 9.094618 -39.489396 18.301083 2.925149 0.000000 0.000000 0.000000
-51.987816 67.074132 314.233000 8.264547 -5.355839 13.974759 0.595717 0.682658 -13.260470 -0.372860 0.080152 0.371043 -7.428625 11.908976 0.946337 0.000000 0.000000 0.000000 0.107271 -0.505253 -2.339458 -12.039310 -10.177942 0.591564 2.555015 -35.531818 19.522988 44.337952 64.458977 -38.604500 0.000000 0.000000 0.000000 0.000000 0.000000 0.000000 6.008839 0.298339 -4.426263 -20.427165 -1.059022 5.930128 -0.181744 -11.556871 -1.981415 -11.856780 20.948976 3.347513 0.000000 0.000000 0.000000 0.000000 0.000000 0.000000 -8.370477 8.412658 -13.172354 -13.228481 -1.813023 0.033004 4.814939 32.282661 66.654633 0.000000 0.000000 0.000000 -0.112449 4.332306 -14.363224 25.542050 -1.471254 9.644637 -40.023259 16.285517 2.045129 0.000000 0.000000 0.000000
-53.200070 63.484514 313.096788 7.155579 -6.283805 11.567014 0.465454 0.679189 -10.877231 -0.535972 0.088199 0.316877 -4.117041 11.896291 -0.255371 0.000000 0.000000 0.000000 -10.219618 -1.076782 1.462237 -2.030795 -3.314981 -6.640042 4.110460 -35.165814 20.848719 36.953168 52.023126 -22.531447 0.000000 0.000000 0.000000 0.000000 0.000000 0.000000 11.897391 8.829943 -6.642675 -25.482690 -11.377441 4.981159 0.263637 -9.153580 -2.882591 -10.337231 19.080987 3.572931 0.000000 0.000000 0.000000 0.000000 0.000000 0.000000 -8.273677 6.912931 -10.607788 -10.648459 -0.158613 0.229396 -0.466281 24.439180 68.913274 0.000000 0.000000 0.000000 2.306708 5.938600 -12.220712 24.811757 -1.811507 10.111575 -37.711221 12.667263 -1.187246 0.000000 0.000000 0.000000
-54.241143 60.406124 312.470549 6.127734 -7.003715 11.267731 0.425841 0.603415 -10.623374 -0.582959 0.094263 0.274881 -3.139621 9.977160 -0.769429 0.000000 0.000000 0.000000 -18.062289 2.957916 4.278177 7.157132 0.832287 -12.101764 7.012312 -36.438276 23.060774 25.962712 54.759301 -17.569470 0.000000 0.000000 0.000000 0.000000 0.000000 0.000000 13.776686 23.077082 -8.550214 -24.035122 -26.743001 1.262396 -0.957377 -6.545572 -3.014633 -9.435613 18.137307 3.384902 0.000000 0.000000 0.000000 0.000000 0.000000 0.000000 -7.613497 6.640367 -10.288101 -8.751392 0.170768 0.106316 -4.338894 16.437986 69.312787 0.000000 0.000000 0.000000 5.561586 7.179808 -12.394283 23.310915 -2.123079 10.610139 -35.220655 6.732626 -4.535146 0.000000 0.000000 0.000000
